<?xml version="1.0" encoding="utf-8"?>
<!-- Generator: Adobe Illustrator 27.2.0, SVG Export Plug-In . SVG Version: 6.00 Build 0)  -->
<svg version="1.1" id="Слой_1" xmlns="http://www.w3.org/2000/svg" xmlns:xlink="http://www.w3.org/1999/xlink" x="0px" y="0px"
	 viewBox="0 0 32 32" style="enable-background:new 0 0 32 32;" xml:space="preserve">
<g>
	<g>
		<path d="M26.6,5.4C22.8,0.9,16.2,0.1,11,2.5C8,3.9,5.7,7,5.2,10.2c-0.7,3.7,1,7.5,4.3,9.4c2.8,1.6,6.4,2,9.4,1.3
			c1.9-0.4,1.1-3.3-0.8-2.9c-1.4,0.3-2.9,0.3-4.3,0c-0.5-0.1-1.1-0.3-1.6-0.5c-0.2-0.1-0.4-0.1-0.6-0.2c-0.3-0.1,0.1,0.1-0.2-0.1
			c-2.2-1.1-3.7-3.4-3.4-6c0.3-2.5,2-4.9,4.2-6c1.6-0.8,3.6-1.1,5.4-1.1c2.8,0,5.1,1.2,6.9,3.4c0.5,0.6,1.6,0.5,2.1,0
			C27.2,6.9,27.1,6.1,26.6,5.4L26.6,5.4z"/>
	</g>
</g>
<g>
	<g>
		<path d="M15.5,12.9c3.3-0.5,6.8,0.8,8.7,3.5c0.9,1.2,1.5,2.7,1.5,4.2c0,1.4-0.5,2.7-1.3,3.9c-0.6,0.9-1.3,2.1-2.2,2.6
			c-1.4,0.9-3.2,1.2-4.8,1.2c-3.4,0.1-6.9-1-9.5-3.1c-0.6-0.5-1.5-0.6-2.1,0c-0.5,0.5-0.6,1.6,0,2.1c2.7,2.1,5.9,3.5,9.3,3.9
			c3.2,0.4,7.2,0,9.7-2.3c0.9-0.8,1.6-2,2.3-3c0.8-1.2,1.4-2.6,1.6-4c0.5-3.2-1-6.6-3.3-8.8c-2.8-2.8-6.8-3.7-10.7-3.2
			c-0.8,0.1-1.2,1.1-1,1.8C13.9,12.7,14.7,13,15.5,12.9L15.5,12.9z"/>
	</g>
</g>
</svg>
